HIERARCHY
ROOT root
{
	OFFSET	0	13.1	24.9
	CHANNELS 6  Xposition Yposition Zposition Xrotation Yrotation Zrotation
	JOINT spine_1
	{
		OFFSET	0	9.99999	0
		CHANNELS 3  Xrotation Yrotation Zrotation
		JOINT spine_2
		{
			OFFSET	0	112	-10
			CHANNELS 3  Xrotation Yrotation Zrotation
			JOINT spine_3
			{
				OFFSET	0	206.5	19.3
				CHANNELS 3  Xrotation Yrotation Zrotation
				JOINT spine_4
				{
					OFFSET	0	110.4	14.6
					CHANNELS 3  Xrotation Yrotation Zrotation
					JOINT neck_1
					{
						OFFSET	0	71.8	-50.3
						CHANNELS 3  Xrotation Yrotation Zrotation
						JOINT neck_2
						{
							OFFSET	0	86.2	-25.8
							CHANNELS 3  Xrotation Yrotation Zrotation
							JOINT head_ee
							{
								OFFSET	0	179.8	-8.7
								CHANNELS 3  Xrotation Yrotation Zrotation
								End Site
								{
									OFFSET	1	0	0
								}
							}
						}
					}
					JOINT left_clavicle
					{
						OFFSET	-43.2	22.4	-70.8
						CHANNELS 3  Xrotation Yrotation Zrotation
						JOINT left_shoulder
						{
							OFFSET	-93.9	-5.79999	48.7
							CHANNELS 3  Xrotation Yrotation Zrotation
							JOINT left_elbow
							{
								OFFSET	-291.4	-30.8	15.2
								CHANNELS 3  Xrotation Yrotation Zrotation
								JOINT left_lowarm_twist
								{
									OFFSET	-110.7	-3.89999	13.6
									CHANNELS 3  Xrotation Yrotation Zrotation
									JOINT left_hand
									{
										OFFSET	-110.7	-3.89999	13.6
										CHANNELS 3  Xrotation Yrotation Zrotation
										JOINT left_ee
										{
											OFFSET	-80.8	-5.10001	12.1
											CHANNELS 3  Xrotation Yrotation Zrotation
											End Site
											{
												OFFSET	1	0	0
											}
										}
									}
								}
							}
						}
					}
					JOINT right_clavicle
					{
						OFFSET	43.2	22.4	-70.8
						CHANNELS 3  Xrotation Yrotation Zrotation
						JOINT right_shoulder
						{
							OFFSET	93.9	-5.79999	48.7
							CHANNELS 3  Xrotation Yrotation Zrotation
							JOINT right_elbow
							{
								OFFSET	291.4	-30.8	15.2
								CHANNELS 3  Xrotation Yrotation Zrotation
								JOINT right_lowarm_twist
								{
									OFFSET	110.7	-3.89999	13.6
									CHANNELS 3  Xrotation Yrotation Zrotation
									JOINT right_hand
									{
										OFFSET	110.7	-3.89999	13.6
										CHANNELS 3  Xrotation Yrotation Zrotation
										JOINT right_ee
										{
											OFFSET	80.8	-5.10001	12.1
											CHANNELS 3  Xrotation Yrotation Zrotation
											End Site
											{
												OFFSET	1	0	0
											}
										}
									}
								}
							}
						}
					}
				}
			}
		}
	}
	JOINT left_hip
	{
		OFFSET	-82.8	-127.5	0.300001
		CHANNELS 3  Xrotation Yrotation Zrotation
		JOINT left_knee
		{
			OFFSET	-28.2	-396.7	2.2
			CHANNELS 3  Xrotation Yrotation Zrotation
			JOINT left_ankle
			{
				OFFSET	-11.7	-411.3	35.4
				CHANNELS 3  Xrotation Yrotation Zrotation
				JOINT left_toes
				{
					OFFSET	0	-60	-88.6
					CHANNELS 3  Xrotation Yrotation Zrotation
					JOINT left_foot_ee
					{
						OFFSET	-22.5	-16.5	-42.2
						CHANNELS 3  Xrotation Yrotation Zrotation
						End Site
						{
							OFFSET	1	0	0
						}
					}
				}
			}
		}
	}
	JOINT right_hip
	{
		OFFSET	82.8	-127.5	0.300001
		CHANNELS 3  Xrotation Yrotation Zrotation
		JOINT right_knee
		{
			OFFSET	28.2	-396.7	2.2
			CHANNELS 3  Xrotation Yrotation Zrotation
			JOINT right_ankle
			{
				OFFSET	11.7	-411.3	35.4
				CHANNELS 3  Xrotation Yrotation Zrotation
				JOINT right_toes
				{
					OFFSET	0	-60	-88.6
					CHANNELS 3  Xrotation Yrotation Zrotation
					JOINT right_foot_ee
					{
						OFFSET	22.5	-16.5	-42.2
						CHANNELS 3  Xrotation Yrotation Zrotation
						End Site
						{
							OFFSET	1	0	0
						}
					}
				}
			}
		}
	}
}
MOTION
Frames: 10
Frame Time: 0.02
3177.02 653.055 -1669.29 0.446056859851 60.2982478546 -1.37630775575 -2.21631 0.560846 1.26167 -2.21555 0.479433 1.29479 -2.20343 0.143975 1.37316 -2.20588 0.359015 1.3332 -16.8753 14.8038 2.52599 -17.712 27.0194 8.02675 -0.0 0.0 -0.0 4.78985 24.2063 9.29479 -36.3883 -13.4831 66.8678 0.510311 -14.187 0.0635041 -13.0618 -0.638775 1.53948 0.275241 13.109 7.13186 -0.0 0.0 -0.0 13.9413 26.6194 -27.7879 17.25 33.0149 -55.8153 1.91631 43.5051 -0.764689 55.4283 1.38424 6.67056 3.55031 -4.93979 -26.3858 0.0 0.0 0.0 22.8581 -4.80815 -7.42912 5.12008 -0.244447 -0.747238 -23.6503 12.5043 3.56547 13.2617 -0.0 -0.0 -0.0 0.0 -0.0 -9.92573 -26.2405 13.1469 -16.7035 -0.32032 -2.53424 29.4472 32.5803 4.90217 4.79311 -0.0 -0.0 0.0 0.0 0.0 
3092.79822627 661.454 -1669.32049418 -2.25164622639 60.9582111971 0.464125493289 -1.80074 0.773352 1.04659 -1.8004 0.705192 1.09367 -1.78603 0.421529 1.23113 -1.78763 0.610661 1.14913 -15.3929 15.4108 4.4942 -16.0439 26.904 9.66455 -0.0 0.0 -0.0 5.24762 23.6196 9.9533 -35.2826 -15.1099 63.5684 0.583225 -16.1148 0.0825637 -14.6613 -0.740704 1.717 0.762886 11.6079 9.67498 -0.0 0.0 -0.0 13.8533 26.6801 -27.5746 10.1457 29.5283 -54.1445 2.00063 44.7375 -0.823392 56.0196 1.43265 6.72885 3.59497 -6.2074 -27.1743 0.0 0.0 0.0 20.8798 -7.63458 -4.63611 3.30499 -0.150141 -0.484818 -17.5268 7.48499 2.63252 14.9117 -0.0 -0.0 -0.0 0.0 -0.0 -9.48787 -20.1501 16.375 -18.6783 -0.309026 -2.83701 25.6703 32.6917 4.39574 5.75175 -0.0 -0.0 0.0 0.0 0.0 
3074.8654393 663.716 -1667.47808721 -2.59307255845 60.8105434482 0.993153419276 -1.76633 0.660274 1.02659 -1.76594 0.593615 1.06652 -1.75404 0.320383 1.17779 -1.75563 0.502361 1.11242 -14.8427 15.616 4.61413 -15.4563 27.1506 9.70442 -0.0 0.0 -0.0 5.60096 23.4424 10.4587 -34.1963 -15.2678 62.151 0.627752 -17.2742 0.0953553 -14.8924 -0.755836 1.74241 0.682869 11.153 8.98719 -0.0 0.0 -0.0 13.6008 26.4615 -27.014 8.7885 29.2454 -54.3742 2.01762 44.9797 -0.83538 56.1119 1.44026 6.7379 3.40926 -6.73871 -25.9925 0.0 0.0 0.0 21.2018 -8.43453 -4.28413 -0.753518 0.0302927 0.111668 -9.46789 9.36802 1.41058 17.404 -0.0 -0.0 -0.0 0.0 -0.0 -9.18776 -19.2549 17.1105 -18.3075 -0.311942 -2.78019 24.3388 30.9165 4.10327 6.28615 -0.0 -0.0 0.0 0.0 0.0 
3041.87158986 666.581 -1668.9654432 -2.92444483362 61.0807252431 1.41509740597 -1.74757 0.531049 1.01527 -1.74712 0.465372 1.047 -1.73783 0.200863 1.12801 -1.73941 0.37648 1.08214 -12.6262 16.3595 3.99732 -13.1257 28.6142 8.79295 -0.0 0.0 -0.0 5.30225 22.6141 10.075 -33.2357 -15.6487 62.7411 0.583658 -16.1262 0.0826839 -15.0988 -0.769445 1.76506 0.820948 11.7996 10.1211 -0.0 0.0 -0.0 13.742 26.6047 -27.3249 7.15846 28.3989 -55.008 1.919 43.5452 -0.766542 56.6199 1.48241 6.78751 3.60276 -6.22378 -27.238 0.0 0.0 0.0 20.4974 -7.9667 -3.6131 -3.93605 0.141929 0.587272 -2.97515 8.73398 0.438279 17.9959 -0.0 -0.0 -0.0 0.0 -0.0 -9.4224 -18.4896 17.8558 -18.6459 -0.309295 -2.83205 25.3197 31.5738 4.27896 6.47746 -0.0 -0.0 0.0 0.0 0.0 
2976.22910134 664.723 -1671.29375047 -3.56727406614 60.2558795523 1.53754361257 -1.40456 0.111458 1.14183 -1.40384 0.0385797 1.1466 -1.40246 -0.230872 1.12379 -1.40421 -0.0505057 1.14614 -12.0209 16.7792 4.36961 -12.4708 29.0817 9.10889 -0.0 0.0 -0.0 4.59591 22.9426 9.06033 -30.0518 -17.2162 62.3661 0.682748 -18.6863 0.112333 -15.8901 -0.822361 1.85143 0.770255 12.6185 10.1001 -0.0 0.0 -0.0 13.7617 26.5071 -27.3829 3.45335 25.6766 -57.1443 1.80964 41.8704 -0.692355 55.0897 1.35679 6.63697 3.38819 -5.79367 -25.5023 0.0 0.0 0.0 18.7342 -8.72969 -0.703783 -7.91551 0.244067 1.18931 13.4641 7.78109 -1.88975 16.6712 -0.0 -0.0 -0.0 0.0 -0.0 -9.4158 -14.3143 19.3676 -21.5566 -0.273893 -3.27722 30.4667 28.8338 4.79549 7.57387 -0.0 -0.0 0.0 0.0 0.0 
2954.47244836 670.159 -1672.36020534 -2.78239169808 60.2580868201 0.628125460503 -1.44191 -0.0552941 1.10508 -1.44124 -0.125497 1.09932 -1.44321 -0.380086 1.03914 -1.44466 -0.211214 1.08611 -12.48 16.83 4.46438 -12.9776 29.1968 9.34425 -0.0 0.0 -0.0 4.65033 23.0487 9.13445 -27.9084 -17.6232 61.7315 0.754454 -20.4924 0.136378 -15.9763 -0.828198 1.86079 0.640894 13.0436 9.43117 -0.0 0.0 -0.0 13.5569 26.3043 -26.9314 1.09607 24.81 -57.0436 1.73603 40.6913 -0.643792 55.1712 1.36338 6.64507 3.38799 -5.43822 -25.3726 0.0 0.0 0.0 17.5446 -8.64042 0.656332 -9.00794 0.264766 1.35567 18.4579 7.61447 -2.53779 16.8414 -0.0 -0.0 -0.0 0.0 -0.0 -8.75359 -12.8574 19.4833 -24.2329 -0.221426 -3.68451 32.1505 27.7017 4.9319 8.16757 -0.0 -0.0 0.0 0.0 0.0 
2954.46051547 670.159 -1671.31848406 -2.80539579828 60.5259557783 0.654584335228 -1.44191 -0.0552941 1.10508 -1.44124 -0.125497 1.09932 -1.44321 -0.380086 1.03914 -1.44466 -0.211214 1.08611 -12.48 16.83 4.46438 -12.9776 29.1968 9.34425 -0.0 0.0 -0.0 4.65033 23.0487 9.13445 -27.9084 -17.6232 61.7315 0.754454 -20.4924 0.136378 -15.9763 -0.828198 1.86079 0.640894 13.0436 9.43117 -0.0 0.0 -0.0 13.5569 26.3043 -26.9314 1.09607 24.81 -57.0436 1.73603 40.6913 -0.643792 55.1712 1.36338 6.64507 3.38799 -5.43822 -25.3726 0.0 0.0 0.0 17.5446 -8.64042 0.656332 -9.00794 0.264766 1.35567 18.4579 7.61447 -2.53779 16.8414 -0.0 -0.0 -0.0 0.0 -0.0 -8.75359 -12.8574 19.4833 -24.2329 -0.221426 -3.68451 32.1505 27.7017 4.9319 8.16757 -0.0 -0.0 0.0 0.0 0.0 
2954.46032234 670.159 -1671.29718246 -2.80587079298 60.5314330915 0.655129928492 -1.44191 -0.0552941 1.10508 -1.44124 -0.125497 1.09932 -1.44321 -0.380086 1.03914 -1.44466 -0.211214 1.08611 -12.48 16.83 4.46438 -12.9776 29.1968 9.34425 -0.0 0.0 -0.0 4.65033 23.0487 9.13445 -27.9084 -17.6232 61.7315 0.754454 -20.4924 0.136378 -15.9763 -0.828198 1.86079 0.640894 13.0436 9.43117 -0.0 0.0 -0.0 13.5569 26.3043 -26.9314 1.09607 24.81 -57.0436 1.73603 40.6913 -0.643792 55.1712 1.36338 6.64507 3.38799 -5.43822 -25.3726 0.0 0.0 0.0 17.5446 -8.64042 0.656332 -9.00794 0.264766 1.35567 18.4579 7.61447 -2.53779 16.8414 -0.0 -0.0 -0.0 0.0 -0.0 -8.75359 -12.8574 19.4833 -24.2329 -0.221426 -3.68451 32.1505 27.7017 4.9319 8.16757 -0.0 -0.0 0.0 0.0 0.0 
2923.27384785 673.947 -1676.43887185 -1.40048964226 59.2242795268 -0.675382071532 -1.53355 -0.396884 0.932185 -1.53318 -0.455395 0.905044 -1.54038 -0.656478 0.771708 -1.54082 -0.526367 0.865696 -12.8055 16.9747 4.59909 -13.3432 29.4441 9.61226 -0.0 0.0 -0.0 4.9841 22.3783 9.62862 -23.2243 -18.7643 60.529 0.87203 -23.363 0.180299 -16.1352 -0.838993 1.87803 0.431523 13.5143 8.2777 -0.0 0.0 -0.0 13.1271 26.0368 -25.9666 -2.15371 23.7514 -57.4728 1.67353 39.6561 -0.603471 55.2208 1.36739 6.64999 3.35434 -5.1829 -25.0339 0.0 0.0 0.0 15.8609 -8.48473 2.32606 -10.4515 0.287245 1.57603 24.3236 7.48768 -3.25222 17.2031 -0.0 -0.0 -0.0 0.0 -0.0 -7.75837 -10.0375 19.2303 -29.7624 -0.0530938 -4.5161 34.2457 26.2458 5.08751 8.85323 -0.0 -0.0 0.0 0.0 0.0 
2923.24615921 673.947 -1675.37718575 -1.41040933082 59.4639222804 -0.663850860026 -1.53355 -0.396884 0.932185 -1.53318 -0.455395 0.905044 -1.54038 -0.656478 0.771708 -1.54082 -0.526367 0.865696 -12.8055 16.9747 4.59909 -13.3432 29.4441 9.61226 -0.0 0.0 -0.0 4.9841 22.3783 9.62862 -23.2243 -18.7643 60.529 0.87203 -23.363 0.180299 -16.1352 -0.838993 1.87803 0.431523 13.5143 8.2777 -0.0 0.0 -0.0 13.1271 26.0368 -25.9666 -2.15371 23.7514 -57.4728 1.67353 39.6561 -0.603471 55.2208 1.36739 6.64999 3.35434 -5.1829 -25.0339 0.0 0.0 0.0 15.8609 -8.48473 2.32606 -10.4515 0.287245 1.57603 24.3236 7.48768 -3.25222 17.2031 -0.0 -0.0 -0.0 0.0 -0.0 -7.75837 -10.0375 19.2303 -29.7624 -0.0530938 -4.5161 34.2457 26.2458 5.08751 8.85323 -0.0 -0.0 0.0 0.0 0.0 
